HIERARCHY
ROOT newVegas:Hips
{
	OFFSET 0.000000 96.479958 0.000000
	CHANNELS 6 Xposition Yposition Zposition Xrotation Yrotation Zrotation
	JOINT newVegas:Pelvis
	{
		OFFSET 0.000000 0.000000 0.000000
		CHANNELS 3 Xrotation Yrotation Zrotation
		JOINT newVegas:LeftUpLeg
		{
			OFFSET 18.735201 -5.666702 -4.541200
			CHANNELS 3 Xrotation Yrotation Zrotation
			JOINT newVegas:LeftLeg
			{
				OFFSET -0.021200 -31.938179 0.493100
				CHANNELS 3 Xrotation Yrotation Zrotation
				JOINT newVegas:LeftFoot
				{
					OFFSET 0.021200 -31.938179 -4.336299
					CHANNELS 3 Xrotation Yrotation Zrotation
					JOINT newVegas:LeftToeBase
					{
						OFFSET 0.943001 -26.722000 15.023500
						CHANNELS 3 Xrotation Yrotation Zrotation
						End Site
						{
							OFFSET 0.000000 30.670183 0.000000
						}
					}
				}
				JOINT newVegas:Left_PantLeg
				{
					OFFSET 0.663870 -9.044666 -1.108900
					CHANNELS 3 Xrotation Yrotation Zrotation
					End Site
					{
						OFFSET 1.415995 20.635357 0.000000
					}
				}
			}
		}
		JOINT newVegas:RightUpLeg
		{
			OFFSET -18.735201 -5.666702 -4.541200
			CHANNELS 3 Xrotation Yrotation Zrotation
			JOINT newVegas:RightLeg
			{
				OFFSET 0.018946 -31.938133 0.493100
				CHANNELS 3 Xrotation Yrotation Zrotation
				JOINT newVegas:RightFoot
				{
					OFFSET -0.018946 -31.938126 -4.336299
					CHANNELS 3 Xrotation Yrotation Zrotation
					JOINT newVegas:RightToeBase
					{
						OFFSET -0.943001 -26.722004 15.023500
						CHANNELS 3 Xrotation Yrotation Zrotation
						End Site
						{
							OFFSET 0.000000 30.670187 0.000000
						}
					}
				}
				JOINT newVegas:Right_PantLeg
				{
					OFFSET -0.661674 -9.044716 -1.108900
					CHANNELS 3 Xrotation Yrotation Zrotation
					End Site
					{
						OFFSET -1.415958 20.635269 0.000000
					}
				}
			}
		}
	}
	JOINT newVegas:Spine
	{
		OFFSET 0.000000 10.199997 -0.299500
		CHANNELS 3 Xrotation Yrotation Zrotation
		JOINT newVegas:Spine1
		{
			OFFSET 0.000000 11.900002 -1.516600
			CHANNELS 3 Xrotation Yrotation Zrotation
			JOINT newVegas:Spine2
			{
				OFFSET 0.000000 13.600006 -2.842500
				CHANNELS 3 Xrotation Yrotation Zrotation
				JOINT newVegas:Neck
				{
					OFFSET 0.000000 9.624100 -2.890100
					CHANNELS 3 Xrotation Yrotation Zrotation
					JOINT newVegas:Head
					{
						OFFSET 0.000000 14.068802 -1.351900
						CHANNELS 3 Xrotation Yrotation Zrotation
						JOINT newVegas:Hair_Back
						{
							OFFSET 0.000000 3.231903 -17.524799
							CHANNELS 3 Xrotation Yrotation Zrotation
							End Site
							{
								OFFSET 0.000000 19.849884 0.000000
							}
						}
						JOINT newVegas:Hair_Front
						{
							OFFSET 0.000000 31.260406 4.573800
							CHANNELS 3 Xrotation Yrotation Zrotation
							JOINT newVegas:Hair_Front1
							{
								OFFSET 0.000000 2.284103 11.993300
								CHANNELS 3 Xrotation Yrotation Zrotation
								JOINT newVegas:Hair_Front2
								{
									OFFSET 0.000000 2.284103 11.993300
									CHANNELS 3 Xrotation Yrotation Zrotation
									End Site
									{
										OFFSET 0.000000 12.208862 0.000000
									}
								}
							}
						}
						JOINT newVegas:Jowel
						{
							OFFSET 0.000000 -7.458206 6.864100
							CHANNELS 3 Xrotation Yrotation Zrotation
							End Site
							{
								OFFSET 0.000000 19.849884 0.000000
							}
						}
					}
				}
				JOINT newVegas:LeftShoulder
				{
					OFFSET 15.263000 10.923401 -0.547700
					CHANNELS 3 Xrotation Yrotation Zrotation
					JOINT newVegas:LeftArm
					{
						OFFSET 25.438599 -2.830597 -13.032500
						CHANNELS 3 Xrotation Yrotation Zrotation
						JOINT newVegas:LeftForeArm
						{
							OFFSET 29.960503 0.000000 0.000000
							CHANNELS 3 Xrotation Yrotation Zrotation
							JOINT newVegas:LeftHand
							{
								OFFSET 27.849251 0.000000 0.000000
								CHANNELS 3 Xrotation Yrotation Zrotation
								JOINT newVegas:LeftHandThumb1
								{
									OFFSET 4.487587 -3.305161 6.305391
									CHANNELS 3 Xrotation Yrotation Zrotation
									JOINT newVegas:LeftHandThumb2
									{
										OFFSET 5.480453 -3.164139 3.164143
										CHANNELS 3 Xrotation Yrotation Zrotation
										JOINT newVegas:LeftHandThumb3
										{
											OFFSET 5.159721 -2.978973 2.978967
											CHANNELS 3 Xrotation Yrotation Zrotation
											End Site
											{
												OFFSET 2.494507 5.926697 1.738678
											}
										}
									}
								}
								JOINT newVegas:LeftHandIndex1
								{
									OFFSET 18.578728 -0.527832 5.208049
									CHANNELS 3 Xrotation Yrotation Zrotation
									JOINT newVegas:LeftHandIndex2
									{
										OFFSET 3.192009 0.000000 0.000000
										CHANNELS 3 Xrotation Yrotation Zrotation
										JOINT newVegas:LeftHandIndex3
										{
											OFFSET 3.835129 0.000000 0.000000
											CHANNELS 3 Xrotation Yrotation Zrotation
											End Site
											{
												OFFSET -0.034599 3.816971 0.371180
											}
										}
									}
								}
								JOINT newVegas:LeftHandMiddle1
								{
									OFFSET 18.476105 0.000000 0.000000
									CHANNELS 3 Xrotation Yrotation Zrotation
									JOINT newVegas:LeftHandMiddle2
									{
										OFFSET 3.324875 0.000000 0.000000
										CHANNELS 3 Xrotation Yrotation Zrotation
										JOINT newVegas:LeftHandMiddle3
										{
											OFFSET 4.596550 0.000000 0.000000
											CHANNELS 3 Xrotation Yrotation Zrotation
											End Site
											{
												OFFSET 0.057701 4.578827 0.399218
											}
										}
									}
								}
								JOINT newVegas:LeftHandRing1
								{
									OFFSET 17.732719 0.121887 -4.201567
									CHANNELS 3 Xrotation Yrotation Zrotation
									JOINT newVegas:LeftHandRing2
									{
										OFFSET 2.733170 0.000000 0.000000
										CHANNELS 3 Xrotation Yrotation Zrotation
										JOINT newVegas:LeftHandRing3
										{
											OFFSET 3.178268 0.000000 0.000000
											CHANNELS 3 Xrotation Yrotation Zrotation
											End Site
											{
												OFFSET 0.119102 3.170624 0.185394
											}
										}
									}
								}
								JOINT newVegas:LeftHandPinky1
								{
									OFFSET 15.989624 -0.606689 -7.535461
									CHANNELS 3 Xrotation Yrotation Zrotation
									JOINT newVegas:LeftHandPinky2
									{
										OFFSET 2.538986 0.000000 0.000000
										CHANNELS 3 Xrotation Yrotation Zrotation
										JOINT newVegas:LeftHandPinky3
										{
											OFFSET 2.593102 0.000000 0.000000
											CHANNELS 3 Xrotation Yrotation Zrotation
											End Site
											{
												OFFSET -0.150902 2.584198 0.152708
											}
										}
									}
								}
							}
							JOINT newVegas:Left_Sleeve
							{
								OFFSET 0.267448 -0.649796 0.577675
								CHANNELS 3 Xrotation Yrotation Zrotation
								End Site
								{
									OFFSET 0.000000 15.991241 0.000000
								}
							}
							JOINT newVegas:Left_CapeC
							{
								OFFSET 15.715958 -8.608795 -6.935905
								CHANNELS 3 Xrotation Yrotation Zrotation
								JOINT newVegas:Left_CapeC1
								{
									OFFSET 0.000000 -8.688499 0.000000
									CHANNELS 3 Xrotation Yrotation Zrotation
									End Site
									{
										OFFSET 0.000000 8.688499 0.000000
									}
								}
							}
						}
						JOINT newVegas:Left_CapeB
						{
							OFFSET 26.118385 -8.608795 -7.079235
							CHANNELS 3 Xrotation Yrotation Zrotation
							JOINT newVegas:Left_CapeB1
							{
								OFFSET 0.000000 -8.688499 0.000000
								CHANNELS 3 Xrotation Yrotation Zrotation
								End Site
								{
									OFFSET 0.000000 8.688499 0.000000
								}
							}
						}
						JOINT newVegas:Left_CapeA
						{
							OFFSET 5.115639 -8.608795 -10.395809
							CHANNELS 3 Xrotation Yrotation Zrotation
							JOINT newVegas:Left_CapeA1
							{
								OFFSET 0.000000 -8.688499 0.000000
								CHANNELS 3 Xrotation Yrotation Zrotation
								End Site
								{
									OFFSET 0.000000 8.688499 0.000000
								}
							}
						}
					}
				}
				JOINT newVegas:RightShoulder
				{
					OFFSET -15.263000 10.923401 -0.547700
					CHANNELS 3 Xrotation Yrotation Zrotation
					JOINT newVegas:RightArm
					{
						OFFSET -25.438599 -2.830597 -13.032500
						CHANNELS 3 Xrotation Yrotation Zrotation
						JOINT newVegas:RightForeArm
						{
							OFFSET -29.960503 0.000000 0.000000
							CHANNELS 3 Xrotation Yrotation Zrotation
							JOINT newVegas:RightHand
							{
								OFFSET -27.849251 0.000000 0.000000
								CHANNELS 3 Xrotation Yrotation Zrotation
								JOINT newVegas:RightHandThumb1
								{
									OFFSET -4.487587 -3.305161 6.305391
									CHANNELS 3 Xrotation Yrotation Zrotation
									JOINT newVegas:RightHandThumb2
									{
										OFFSET -5.480453 -3.164139 3.164143
										CHANNELS 3 Xrotation Yrotation Zrotation
										JOINT newVegas:RightHandThumb3
										{
											OFFSET -5.159721 -2.978973 2.978967
											CHANNELS 3 Xrotation Yrotation Zrotation
											End Site
											{
												OFFSET -2.494507 5.926697 1.738678
											}
										}
									}
								}
								JOINT newVegas:RightHandIndex1
								{
									OFFSET -18.578728 -0.527832 5.208049
									CHANNELS 3 Xrotation Yrotation Zrotation
									JOINT newVegas:RightHandIndex2
									{
										OFFSET -3.192009 0.000000 0.000000
										CHANNELS 3 Xrotation Yrotation Zrotation
										JOINT newVegas:RightHandIndex3
										{
											OFFSET -3.835129 0.000000 0.000000
											CHANNELS 3 Xrotation Yrotation Zrotation
											End Site
											{
												OFFSET 0.034599 3.816971 0.371180
											}
										}
									}
								}
								JOINT newVegas:RightHandMiddle1
								{
									OFFSET -18.476105 0.000000 0.000000
									CHANNELS 3 Xrotation Yrotation Zrotation
									JOINT newVegas:RightHandMiddle2
									{
										OFFSET -3.324875 0.000000 0.000000
										CHANNELS 3 Xrotation Yrotation Zrotation
										JOINT newVegas:RightHandMiddle3
										{
											OFFSET -4.596550 0.000000 0.000000
											CHANNELS 3 Xrotation Yrotation Zrotation
											End Site
											{
												OFFSET -0.057701 4.578827 0.399218
											}
										}
									}
								}
								JOINT newVegas:RightHandRing1
								{
									OFFSET -17.732719 0.121887 -4.201567
									CHANNELS 3 Xrotation Yrotation Zrotation
									JOINT newVegas:RightHandRing2
									{
										OFFSET -2.733170 0.000000 0.000000
										CHANNELS 3 Xrotation Yrotation Zrotation
										JOINT newVegas:RightHandRing3
										{
											OFFSET -3.178268 0.000000 0.000000
											CHANNELS 3 Xrotation Yrotation Zrotation
											End Site
											{
												OFFSET -0.119102 3.170624 0.185394
											}
										}
									}
								}
								JOINT newVegas:RightHandPinky1
								{
									OFFSET -15.989624 -0.606689 -7.535461
									CHANNELS 3 Xrotation Yrotation Zrotation
									JOINT newVegas:RightHandPinky2
									{
										OFFSET -2.538986 0.000000 0.000000
										CHANNELS 3 Xrotation Yrotation Zrotation
										JOINT newVegas:RightHandPinky3
										{
											OFFSET -2.593102 0.000000 0.000000
											CHANNELS 3 Xrotation Yrotation Zrotation
											End Site
											{
												OFFSET 0.150902 2.584198 0.152708
											}
										}
									}
								}
							}
							JOINT newVegas:Right_CapeC
							{
								OFFSET -15.715958 -8.608795 -6.935905
								CHANNELS 3 Xrotation Yrotation Zrotation
								JOINT newVegas:Right_CapeC1
								{
									OFFSET 0.000000 -8.688499 0.000000
									CHANNELS 3 Xrotation Yrotation Zrotation
									End Site
									{
										OFFSET 0.000000 8.688499 0.000000
									}
								}
							}
							JOINT newVegas:Right_Sleeve
							{
								OFFSET -0.267448 -0.649994 0.577675
								CHANNELS 3 Xrotation Yrotation Zrotation
								End Site
								{
									OFFSET 0.000000 15.991302 0.000000
								}
							}
						}
						JOINT newVegas:Right_CapeA
						{
							OFFSET -5.115540 -8.608795 -10.395824
							CHANNELS 3 Xrotation Yrotation Zrotation
							JOINT newVegas:Right_CapeA1
							{
								OFFSET 0.000000 -8.688499 0.000000
								CHANNELS 3 Xrotation Yrotation Zrotation
								End Site
								{
									OFFSET 0.000000 8.688499 0.000000
								}
							}
						}
						JOINT newVegas:Right_CapeB
						{
							OFFSET -26.118187 -8.608795 -7.079266
							CHANNELS 3 Xrotation Yrotation Zrotation
							JOINT newVegas:Right_CapeB1
							{
								OFFSET 0.000000 -8.688499 0.000000
								CHANNELS 3 Xrotation Yrotation Zrotation
								End Site
								{
									OFFSET 0.000000 8.688499 0.000000
								}
							}
						}
					}
				}
				JOINT newVegas:Left_Collar
				{
					OFFSET 18.625099 8.655502 8.828100
					CHANNELS 3 Xrotation Yrotation Zrotation
					JOINT newVegas:Left_Collar1
					{
						OFFSET 14.783401 10.540405 -1.259500
						CHANNELS 3 Xrotation Yrotation Zrotation
						End Site
						{
							OFFSET 0.000000 18.199875 0.000000
						}
					}
				}
				JOINT newVegas:Collar_Back
				{
					OFFSET 0.000000 15.630707 -20.132601
					CHANNELS 3 Xrotation Yrotation Zrotation
					End Site
					{
						OFFSET 0.000000 22.523010 0.000000
					}
				}
				JOINT newVegas:Left_Peck
				{
					OFFSET 17.239599 -5.132599 25.482599
					CHANNELS 3 Xrotation Yrotation Zrotation
					End Site
					{
						OFFSET 0.000000 22.523010 0.000000
					}
				}
				JOINT newVegas:Right_Peck
				{
					OFFSET -17.239599 -5.132202 25.482599
					CHANNELS 3 Xrotation Yrotation Zrotation
					End Site
					{
						OFFSET 0.000000 22.523010 0.000000
					}
				}
				JOINT newVegas:Right_Collar
				{
					OFFSET -18.625099 8.655792 8.828100
					CHANNELS 3 Xrotation Yrotation Zrotation
					JOINT newVegas:Right_Collar1
					{
						OFFSET -14.783401 10.539993 -1.259500
						CHANNELS 3 Xrotation Yrotation Zrotation
						End Site
						{
							OFFSET 0.000000 18.199631 0.000000
						}
					}
				}
			}
		}
		JOINT newVegas:Belly
		{
			OFFSET 0.000000 -6.540398 9.014299
			CHANNELS 3 Xrotation Yrotation Zrotation
			End Site
			{
				OFFSET 0.000000 11.566666 0.000000
			}
		}
	}
	JOINT newVegas:ElvisFacialAnim_Joint
	{
		OFFSET 1.000000 -95.330101 -8.825800
		CHANNELS 3 Xrotation Yrotation Zrotation
		End Site
		{
			OFFSET 0.000000 35.315800 0.000000
		}
	}
}
MOTION
Frames: 4
Frame Time: 0.016667
2.268029 190.754211 -23.928850 5.213639 -7.491863 0.387399 -0.000000 0.000000 -0.000000 -95.018026 5.543841 27.647165 100.622647 -2.546124 4.775319 -1.095036 9.493789 -33.220609 0.000002 0.000000 -0.000001 -0.000000 0.000003 0.000000 -113.470322 17.589880 -13.828116 108.911895 -1.521709 -1.160595 13.810254 -6.826935 38.751713 0.000001 0.000001 -0.000003 0.000000 0.000002 -0.000001 8.444399 -0.616639 -0.772518 16.887410 -1.177193 -1.114027 16.887424 -1.177189 -1.114029 -5.366345 1.232904 -0.531178 -5.366352 1.232906 -0.531186 -0.000002 0.000000 0.000000 -5.366354 1.232880 -0.531172 -5.366210 1.232931 -0.531187 -0.000001 0.000000 -0.000000 -0.000002 0.000000 0.000000 -0.612870 -14.977174 27.292799 -67.334785 -8.203779 -15.014246 16.808252 -68.480289 48.052983 33.848888 9.957042 32.839614 -11.360179 -10.015417 28.397710 19.621105 23.755289 -10.341706 0.000000 -0.000002 -0.000005 -7.847193 -3.445001 -67.091241 -4.893157 2.726504 -36.316416 -0.000001 -0.000001 -0.000000 -10.129424 -3.872139 -67.774239 -1.765732 1.717457 -28.158394 0.000001 -0.000001 0.000000 -15.176955 7.293275 -70.201736 7.766208 -0.421237 -31.520056 0.000000 -0.000001 0.000000 -16.483420 5.440140 -74.872711 8.338724 -0.185837 -18.883053 -0.000001 0.000000 0.000001 -0.000002 -0.000001 0.000001 -0.000002 -0.000001 0.000001 -0.000002 -0.000000 0.000001 -0.000001 -0.000003 -0.000001 -0.000001 -0.000004 -0.000000 -0.000001 -0.000003 -0.000001 -0.000001 -0.000003 -0.000001 6.218779 17.756042 -13.894190 -82.947921 43.284500 24.548716 -18.192465 53.742479 -21.031665 34.793615 6.403814 -40.032388 15.333556 1.500907 -10.491465 -10.396777 -3.067637 -10.223941 0.000002 -0.000002 -0.000001 0.920257 3.497185 64.452179 1.730971 9.565819 38.865463 -0.000001 0.000000 -0.000000 -6.652429 -3.924326 64.485708 9.406003 5.988778 38.253622 -0.000001 -0.000000 -0.000000 -5.546322 1.390177 64.784822 0.232711 -1.792518 39.151747 -0.000001 0.000001 -0.000001 -17.806365 -16.572324 61.043286 25.326739 3.860138 27.748236 -0.000001 -0.000004 -0.000000 0.000000 0.000001 -0.000004 0.000002 0.000001 0.000002 0.000000 0.000001 -0.000005 0.000001 0.000001 -0.000001 0.000001 0.000002 -0.000001 0.000001 0.000001 -0.000001 0.000001 0.000002 -0.000000 -0.000001 0.000000 -0.000000 -0.000001 0.000000 -0.000000 -0.000001 0.000000 -0.000000 -0.000001 0.000000 -0.000000 -0.000001 0.000000 -0.000000 -0.000001 0.000000 -0.000000 -0.000001 0.000000 -0.000000 -0.000001 0.000000 -0.000000 -0.000000 0.000000 -0.000000 
2.360624 190.651382 -24.725918 3.846569 -7.639760 0.451745 -0.000000 -0.000000 -0.000000 -98.568133 3.757194 27.911413 100.442371 -4.017918 3.241899 -0.579024 9.374919 -33.174478 -0.000001 0.000002 0.000003 -0.000000 -0.000001 0.000000 -114.224252 14.664998 -14.625887 104.752938 0.108778 -1.818710 13.014474 -6.714222 37.902789 0.000000 -0.000002 -0.000002 0.000000 -0.000001 -0.000001 9.096238 -0.521808 -0.778540 18.191664 -0.858376 -1.119250 18.191661 -0.858375 -1.119249 -5.514398 1.377120 -0.615039 -5.514412 1.377119 -0.615037 0.000001 -0.000000 0.000000 -5.514387 1.377116 -0.615037 -5.514521 1.377118 -0.615034 0.000002 -0.000000 -0.000000 0.000001 -0.000000 0.000000 0.325156 -15.904565 27.503490 -69.510589 -10.660072 -14.371490 10.803137 -66.204238 45.525496 35.794682 7.408745 31.709795 -11.360187 -10.015408 28.397712 19.621119 23.755265 -10.341706 0.000001 0.000000 -0.000001 -7.847200 -3.444989 -67.091241 -4.893192 2.726528 -36.316430 -0.000000 -0.000001 0.000000 -10.129411 -3.872147 -67.774246 -1.765764 1.717290 -28.158387 -0.000001 0.000001 0.000001 -15.176943 7.293252 -70.201743 7.766226 -0.421199 -31.520053 0.000001 0.000001 -0.000000 -16.483386 5.440057 -74.872718 8.338653 -0.185771 -18.883067 -0.000001 0.000002 0.000001 0.000003 0.000002 -0.000003 0.000003 0.000002 -0.000003 0.000002 0.000001 -0.000003 -0.000000 0.000002 0.000001 -0.000000 0.000001 0.000000 -0.000000 0.000002 0.000001 -0.000000 0.000003 0.000001 6.708628 18.898923 -14.296316 -85.364094 45.042424 22.649406 -20.331853 51.306212 -20.083118 36.853051 8.003231 -39.095060 15.333561 1.500910 -10.491463 -10.396775 -3.067635 -10.223937 0.000001 0.000000 -0.000000 0.920271 3.497223 64.452165 1.731015 9.565887 38.865443 0.000000 0.000001 -0.000000 -6.652414 -3.924327 64.485701 9.406014 5.988787 38.253636 -0.000001 0.000000 -0.000000 -5.546337 1.390198 64.784761 0.232794 -1.792451 39.151744 0.000000 0.000002 -0.000000 -17.806361 -16.572315 61.043299 25.326893 3.860250 27.748234 -0.000001 -0.000002 0.000000 0.000001 -0.000000 0.000002 0.000001 -0.000001 0.000002 0.000001 -0.000001 0.000002 -0.000001 0.000001 0.000001 -0.000001 0.000002 0.000002 -0.000001 0.000001 0.000001 -0.000000 0.000002 0.000002 -0.000001 -0.000000 0.000000 -0.000001 -0.000000 0.000000 -0.000001 -0.000000 0.000000 -0.000001 -0.000000 0.000000 -0.000001 -0.000000 0.000000 -0.000001 -0.000000 0.000000 -0.000001 -0.000000 0.000000 0.000000 0.000001 -0.000000 -0.000000 -0.000000 -0.000000 
2.498860 190.405823 -25.374969 2.543212 -7.670463 0.546406 -0.000000 0.000001 -0.000000 -101.214319 3.132137 27.546640 98.128139 -5.182957 2.209607 0.628568 8.956910 -32.446636 -0.000000 -0.000002 -0.000000 -0.000000 0.000002 0.000001 -113.618018 11.182907 -15.490172 99.343940 2.072919 -2.179299 11.340418 -6.756048 35.747643 -0.000000 0.000001 -0.000003 0.000000 -0.000002 -0.000001 9.690829 -0.418120 -0.760583 19.380863 -0.593883 -1.137936 19.380874 -0.593885 -1.137935 -5.589151 1.518246 -0.685184 -5.589140 1.518242 -0.685182 -0.000000 -0.000000 0.000000 -5.589137 1.518242 -0.685183 -5.589123 1.518243 -0.685184 -0.000003 -0.000000 0.000000 -0.000000 -0.000000 0.000000 1.416566 -16.917211 27.896842 -71.463921 -13.211113 -13.429065 5.023497 -63.827237 43.312453 37.747416 4.815446 30.663987 -11.360193 -10.015407 28.397688 19.621105 23.755248 -10.341694 0.000001 -0.000003 -0.000001 -7.847192 -3.445003 -67.091241 -4.893218 2.726538 -36.316416 0.000000 -0.000000 -0.000001 -10.129390 -3.872179 -67.774246 -1.765776 1.717165 -28.158382 0.000001 0.000001 0.000000 -15.176930 7.293202 -70.201750 7.766209 -0.421236 -31.520042 -0.000001 -0.000001 -0.000001 -16.483371 5.439960 -74.872711 8.338588 -0.185686 -18.883076 -0.000001 0.000000 -0.000000 0.000001 -0.000000 -0.000001 0.000001 -0.000000 -0.000001 -0.000000 -0.000001 -0.000001 0.000001 0.000003 0.000001 0.000001 0.000002 0.000000 0.000001 0.000003 0.000001 0.000001 0.000004 0.000001 7.401555 20.145756 -15.002644 -85.334799 46.412245 18.300093 -22.943299 49.160246 -18.542919 37.921634 8.917807 -38.636772 15.333558 1.500905 -10.491461 -10.396778 -3.067638 -10.223938 0.000002 -0.000003 -0.000001 0.920264 3.497230 64.452185 1.731077 9.565917 38.865443 0.000000 0.000001 -0.000001 -6.652427 -3.924316 64.485701 9.406010 5.988784 38.253636 0.000000 0.000002 0.000000 -5.546330 1.390194 64.784775 0.232889 -1.792371 39.151747 0.000000 -0.000001 -0.000000 -17.806368 -16.572305 61.043306 25.327045 3.860326 27.748226 0.000001 -0.000004 0.000000 0.000003 0.000001 -0.000001 0.000005 0.000001 -0.000001 0.000003 0.000001 -0.000001 0.000000 0.000002 -0.000000 0.000000 0.000002 -0.000000 0.000000 0.000002 -0.000000 0.000000 0.000002 0.000001 0.000000 0.000000 -0.000000 0.000000 0.000000 -0.000000 0.000000 0.000000 -0.000000 0.000000 0.000000 -0.000000 0.000000 0.000000 -0.000000 0.000000 0.000000 -0.000000 0.000000 0.000000 -0.000000 0.000001 -0.000001 0.000000 -0.000000 0.000001 -0.000000 
2.654553 190.051483 -25.904623 1.363459 -7.643987 0.664872 0.000000 0.000001 -0.000000 -102.439635 3.674959 26.636199 93.876927 -6.282370 1.600541 1.901240 8.457642 -30.825702 0.000001 0.000001 0.000003 -0.000001 0.000000 -0.000000 -111.620761 7.288839 -16.270238 92.844981 4.267010 -2.197078 9.004565 -6.842136 32.284563 -0.000001 -0.000001 -0.000003 0.000000 0.000002 0.000001 10.215957 -0.309090 -0.723145 20.431048 -0.404106 -1.150168 20.431030 -0.404107 -1.150168 -5.587169 1.648795 -0.734394 -5.587182 1.648797 -0.734397 -0.000003 0.000000 -0.000000 -5.587182 1.648795 -0.734395 -5.587227 1.648799 -0.734394 -0.000000 0.000000 0.000000 -0.000003 0.000000 -0.000000 2.554311 -17.796333 28.564095 -72.885085 -15.245551 -11.944084 -0.383362 -61.659772 41.125051 39.226473 2.594706 29.927519 -11.360184 -10.015413 28.397703 19.621113 23.755272 -10.341712 -0.000000 0.000001 -0.000003 -7.847203 -3.445000 -67.091220 -4.893235 2.726599 -36.316423 -0.000000 -0.000000 -0.000001 -10.129383 -3.872199 -67.774225 -1.765801 1.717026 -28.158358 -0.000000 0.000000 0.000001 -15.176925 7.293167 -70.201736 7.766208 -0.421221 -31.520059 -0.000000 0.000001 -0.000001 -16.483354 5.439888 -74.872698 8.338514 -0.185605 -18.883088 -0.000000 0.000005 -0.000000 -0.000000 0.000000 -0.000003 -0.000000 0.000000 -0.000003 -0.000001 0.000000 -0.000003 -0.000000 -0.000001 -0.000000 0.000000 -0.000002 -0.000001 -0.000000 -0.000001 -0.000000 0.000000 0.000000 -0.000001 8.191197 21.269081 -15.938339 -83.291336 47.315862 12.192946 -25.736563 47.219632 -16.682254 38.042122 9.218889 -38.545220 15.333563 1.500907 -10.491446 -10.396776 -3.067638 -10.223937 0.000002 0.000000 -0.000000 0.920281 3.497232 64.452165 1.731129 9.565976 38.865429 0.000001 0.000001 0.000000 -6.652414 -3.924330 64.485701 9.406012 5.988772 38.253639 -0.000002 -0.000001 -0.000000 -5.546343 1.390190 64.784809 0.232956 -1.792306 39.151754 -0.000001 0.000001 -0.000003 -17.806366 -16.572310 61.043306 25.327216 3.860423 27.748217 0.000001 -0.000000 -0.000000 0.000001 -0.000001 -0.000000 -0.000001 -0.000001 0.000001 0.000001 -0.000001 0.000001 -0.000001 -0.000001 -0.000000 -0.000001 -0.000001 -0.000000 -0.000001 -0.000001 -0.000000 -0.000001 -0.000001 -0.000000 0.000001 0.000000 -0.000000 0.000001 0.000000 -0.000000 0.000001 0.000000 -0.000000 0.000001 0.000000 -0.000000 0.000001 0.000000 -0.000000 0.000001 0.000000 -0.000000 0.000001 0.000000 -0.000000 0.000001 0.000001 -0.000000 0.000000 0.000001 -0.000000 
